<svg xmlns="http://www.w3.org/2000/svg" width="786" height="142" stroke="#000" stroke-linecap="round" stroke-linejoin="round" fill="#fff" fill-rule="evenodd"><path d="M128 129.4V49.7h25.6V109h41v20.4H128zm141.7-30.6v4H224q0 6.6 3 10 3 3.3 9.3 3.3 5.8 0 8.6-2.4 2.7-2.4 2.7-6.5H270q0 11-8.4 17.4-8.5 6.3-24.7 6.3-17 0-26.4-8-9.4-8-9.4-24 0-15.8 9.2-24 9-8 25.2-8 16.8 0 25.7 8 8.8 8 8.8 24zm-45.7-7h22.4q0-4.7-2.7-7.5-2.7-2.8-7.6-2.8-11 0-12 10.3zm159-2v39.7h-23v-37q0-4-2-6.3-2-2.4-5.4-2.4-4 0-6.6 2.8-2.5 2.8-2.5 6.8v36h-23v-37q0-4-2-6.3-2-2.4-5.4-2.4-4 0-6.6 2.8-2.5 2.8-2.5 6.8v36h-23v-61h19l1.5 9q3.5-4.8 9.2-7.7 5.7-2.8 12-2.8 13.8 0 18.5 10.5 3.6-4.8 9.3-7.7 5.6-2.8 11.7-2.8 10.4 0 15.7 6 5.2 6 5.2 17zm45.4-23q16 0 25.3 8.2 9.2 8 9.2 23.8 0 15.6-9.2 23.8-9.2 8.2-25.3 8.2-16 0-25.2-8.2-9.2-8-9.2-23.8 0-15.8 9.2-24 9-8 25.2-8zM417 95.5v6.6q0 13 11.3 13 11.5 0 11.5-13v-6.6q0-13-11.5-13-11.3 0-11.3 13zm120.5-5.8v39.7h-23v-37q0-4-2-6.3-2-2.4-5.7-2.4-4.3 0-7 2.8-2.6 2.8-2.6 6.8v36h-23v-61h19l1.5 9.3q3.6-5 9.4-7.8 6-3 12.4-3 10.6 0 16 6 5.3 6 5.3 17z" fill="#e6b00f" stroke="none"/><g fill="#2e3a41"><path d="M625 70h-26v59.3h-25.6V70H547V49.7h78V70zm11.6 59.4V49.7h25.6V109h41v20.4h-66.5zm146-56.4v1.4h-24V74q0-3.5-2.5-5.8-2.6-2.3-7.8-2.3-5 0-7.8 1.5-2.7 1.5-2.7 3.7 0 3 3.7 4.6 3.7 1.5 12 3.2 9.6 2 15.8 4 6.2 2 10.8 7 4.7 4.8 4.8 13.2 0 14-9.6 21-9.5 6.8-25.5 6.8-18.7 0-29-6.3-10.4-6.2-10.4-22h24.2q0 6 3 8 3.2 2 9.8 2 4.8 0 8-1 3.2-1 3.2-4.2 0-3-3.5-4.4-3.6-1.4-11.5-3-9.8-2-16.2-4.3-6.3-2.3-11-7.5-4.7-5.2-4.7-14 0-13 10-19.3 10.2-6.2 25.7-6.2 15.3 0 25 6.2 10 6.2 10 18.4z" stroke="none"/><path d="M42.6-.3c-4.3.3-7 1-11.5 3.6-1.8 1-5.8 4.8-7.3 7-1.3 2-3 5.6-3.4 7.2-.1.7-.4 2-.5 2.5-.4 1.7-.4 16.6 0 17 .2.1.5 0 .7-.2l1.7-1 2.3-1.3 2.2-1.3c2.4-1.2 2.5-1.6 2.5-6.4 0-5.6.7-8 3.2-11.3 1.8-2.4 4-3.8 7.6-5 2-.7 8-.8 10-.1l3.2 1.4c.1.1.8.6 1.5 1 1.3 1 3.4 3 4 4 .1.3.4.8.5 1 1.4 2.5 1.8 4.5 2 10l.2 4 1 .7c.5.4 1.3 1 1.7 1l1.2.6c.2.2.6.4.8.5a9 9 0 0 1 1.4.7c1.7 1.2 2.6 1.5 3 1.2a85 85 0 0 0 .1-8.9c-.1-8.5-.2-8.7-1-10.7l-1-2.7c-.1-.3-.3-.7-.5-1-.4-.4-1-1.4-1.3-2-.3-.8-2-2.7-3.5-4.3S58 2.6 57.3 2.6c-.2 0-.6-.2-.8-.5-.2-.2-.6-.4-1-.4-.2 0-.6-.2-.8-.3-.3-.4-1.5-.7-4.6-1.4-3-.6-3.8-.6-7.6-.3z" stroke="none" fill-rule="nonzero"/></g><path d="M87.7 20.4c-.2.1-.7.3-1 .3a17 17 0 0 0-6.7 2.6c-1.2 1-3 3-3.5 4-.3.6-.7 1.3-.8 1.6-.1.2-.3 1-.4 1.7 0 .6-.2 1.3-.3 1.3-.4.3-.2 4.8.3 6l.4 1.3h3.2c3.8-.1 5.4-.4 8.4-2C88.7 36.6 92 33 92 32c0-.2.1-.3.2-.3s.2-.1.2-.3.4-1.3 1-2.6c.2-.4.4-1.2.5-2 0-.6.2-1.2.3-1.4.1-.1.3-1.2.4-2.5l.1-2.2-1-.3c-1-.4-5.5-.5-6-.2z" stroke="none" fill="#00991a" fill-rule="nonzero"/><path d="M39.6 29l-5 3-3 2c-.3.1-1 .5-1.5 1s-1.3.8-1.4.8c-.4 0-3 1.6-4.4 2.6a21 21 0 0 1-2.2 1.4l-9.4 5.7C8.6 48.7 5.2 53 3 58 1.7 60.4 1.5 61 1 63.2c-.1.5-.3 1-.4 1.2-.2.2-.5 2-.8 4-.7 5.3-.5 21.5.4 26.5.7 4 1.4 6.6 2 7 .1.1.2.6.2 1s.2 1 .5 1.5l1.8 3.8 2 3.5c.3.3.6.6.6.7 0 .3 2 3 2.7 4l7.4 7.4c3.6 2.8 5.7 4.2 6.4 4.6l1.7 1c.5.4 1 .7 1.2.7.1 0 1 .6 2.2 1.3 1 .8 2 1.4 2.3 1.4.1 0 .4.2.6.4.2.3.8.8 1.3 1.2a50 50 0 0 1 4.2 3.1c4.6 3.6 4.8 3.7 7.8 3.7 1.8 0 2.7-.2 3.2-.5.4-.3 1-.6 1.5-.6.4-.1 1.5-.8 2.3-1.6l3-2.5c3.4-2.7 4.3-3.4 7.7-5.4l2.4-1.6 2-1.3c.2 0 .5-.2.8-.5.3-.4.7-.6 1-.6a42 42 0 0 0 8.3-7.2c2.5-2.6 5.4-6.5 5.4-7.2 0-.2.2-.5.5-.7a51 51 0 0 0 5.7-13.9c.2-.7.4-2 .6-3 .6-2.4.6-3.3.8-13l-.7-16-.6-2.7c-1-5-4.3-10-8.6-14.4C78 46 76.7 45 73 42.7l-5.5-3.3c-.4-.3-1.3-.8-2-1.2l-6-3.7c-.2-.2-.6-.3-.8-.3s-1-.4-1.5-1c-.5-.5-1.2-1-1.5-1s-.6-.1-.6-.3c0-.3-4-2.8-6.2-3.8-1-.5-2-.6-4-.6-2.6 0-2.7.1-5.2 1.3z" stroke="none" fill="#e6b00f" fill-rule="nonzero"/><g fill="#2e3a41"><circle cx="46.6" cy="75.8" stroke="none" r="11.4"/><path stroke="none" d="M40.6 70.6h12v29.2h-12z"/><ellipse cx="46.6" cy="99.5" rx="6" ry="6.2" stroke="none"/></g></svg>