<svg xmlns="http://www.w3.org/2000/svg" width="993" height="200" stroke="none" stroke-linecap="round" stroke-linejoin="round" fill="#fff" fill-rule="evenodd"><g fill-rule="nonzero"><path d="M172.4 56.8v85.4c0 5.2-2.7 10-7 12.6l-72.6 42.8c-4.3 2.5-9.4 2.5-13.6 0L6.5 154.8c-4.3-2.6-7-7.4-7-12.6V56.8c0-5.2 2.7-10 7-12.6L79.2 1.4c4.2-2.5 9.3-2.5 13.6 0l72.6 42.8c4.3 2.6 7 7.4 7 12.6z" fill="#4f4f4f"/><path d="M94.5 35C86 41.6 86.8 49.2 87 55.8l2.4-.3-.1-3c.5 0 1-.2 1.6-.3 11.7-5.5 6.4-25 6.4-25C97.3 30 90 33.5 85 37c-4.7 3.5-4.8 9-3.8 11.2 1 1.5 2.2 2.6 3.8 3C84 40 94.5 35 94.5 35z" fill="#65cd76"/><path d="M86 55.4c-5.2.1-9.3 3-10.3 6.6-2.8 10.4-26.2 14.3-26.2 45.5s23.4 35 26.2 45.5c1 3.7 5 6.5 10.3 6.6 5.2-.1 9.3-2.8 10.3-6.6 2.8-10.4 26.2-14.3 26.2-45.5S99 72.4 96.2 62c-1-3.7-5-6.5-10.3-6.6zM66.6 91c-5 8-5 25 0 33 .6 1 .5 2.3-.4 3.2-.1.1-.4.2-.5.4-1.2.6-2.7.3-3.5-1a44 44 0 0 1 0-38.3c.8-1.2 2.3-1.6 3.5-1 1.2.8 1.6 2.3.8 3.5z" fill="#ffed24"/></g><path d="M240.7 147.3h46.6V172h-75V28.3h28.3v119zm131.5-31v7.4h-49.6q0 12.3 3 19.5 1 2.5 3.6 5 2.7 2.6 5.6 2.6 3 0 7.2-5 4.3-5 6.7-12l21.2 15q-5.6 10.3-17 18-11.4 7.6-18.3 7.6-7 0-20.2-11-13.3-11-16-17-3-6-3-30 0-24 3-30 2.8-6 16-17 13.2-11 19.4-11 6 0 19.3 11 13.3 10.8 16 17 3 6 3 29.6zm-49.6-12H346q-.7-10.8-2.2-13.6-1.5-2.8-4.7-5.4-3.2-2.7-6-2.7-2.7 0-6.2 5.4-3.5 5.5-4.3 16.3zm143.6-11.6v79.2h-27V95.5q0-3.5-3.7-7.3-3.7-3.8-6.3-3.8-2.5 0-8.3 5v82.4h-27V101q0-10.5-2.5-16.3-2.5-5.7-7.8-10L406 59q6.7 5.7 10 11.7 13.3-12 18.5-12 3 0 10 4.5 7 4.5 12.7 11 16.2-15.4 22.5-15.4 6.3 0 19 11.4 12.6 11.4 12.6 22.4v39.6q0 10.5 2.4 16.2 2.5 5.8 7.8 10l-22.5 16q-14.8-11.7-14.8-33.3V95.5q0-3.5-3.7-7.3-3.7-3.8-6-3.8-2.4 0-8.8 5.2.5 2 .5 3zm121.5 71.6q-12.6 10-18.5 10-6 0-18.6-10-12.6-10-15.5-15-4.3-7.6-4.3-33 0-25.2 4.3-32.6 3-5 15.5-15 12.6-10 18.6-10 6 0 18.5 10 12.6 10 15.5 15 4.3 7.4 4.3 32.6 0 25.3-4.3 33-3 5-15.5 15zM564 147.6q3.2 3 5 3 1.8 0 5-3 3.2-3 4.6-5.5 2.7-4.5 2.7-25.5 0-21-2.7-25.6-1.4-2.5-4.6-5.5-3.2-3-5-3-2 0-5 3-3 3-4.6 5.5-2.7 4.5-2.7 25.4 0 21 2.7 25.7 1.5 2.4 4.6 5.5zM654 93v78.7h-27V101q0-10.5-2.5-16.3-2.5-5.7-7.8-10L639.3 59q7.6 6.2 11.2 14.2 15.2-14.4 21.5-14.4 6.2 0 18.8 11.4 12.7 11.4 12.7 22.4v39.6q0 10.5 2.4 16.2 2.5 5.8 7.8 10l-22.5 15.8q-14.8-11.7-14.8-33.3V95.5q0-3.5-3.7-7.3-3.7-3.8-7-3.8-3.2 0-11.8 8.7z" fill="#4f4f4f"/><path d="M737.3 28.3H819V53h-26.6v119H764V53h-26.7V28.3zm115.4 119h46.6V172h-75V28.3h28.3v119zm52.8-10.7l22.8-15.6q3.2 9.6 10.4 17.6 7.2 8 10.2 8 3 0 6.3-2 3.4-2 5.3-4 2.6-3.3 2.6-10.3 0-7-3.2-8.6-4-3.5-16-9.2-11.8-5.8-22-12.4-10-6.7-12.8-13-2.8-6.3-2.8-16.5 0-10 4.5-17.7 4-6 17.5-16.5 13.3-10.6 19.7-10.6 11.2 0 25.8 11.8 14.6 11.8 18.5 26l-22.8 15.8q-3.3-9.6-10.5-17.7-7-8-10-8-3 0-6.5 1.8-3.5 2-5.6 4.7-2.2 2.7-2.2 9.4 0 6.7 4 9 3.3 3 15 9 30 16.4 35.3 26.7 2.2 3.7 2.2 14.7 0 11-4.5 18.5-4 6-17.4 16.5-13.3 10.6-19.7 10.6-11.3 0-25.8-11.8-14.6-11.8-18.5-26z" fill="#838383"/></svg>