<svg xmlns="http://www.w3.org/2000/svg" width="942" height="142" stroke="#000" stroke-linecap="round" stroke-linejoin="round" fill="#fff" fill-rule="evenodd"><path d="M138 129V31.6h31.3v72.6h50v25H138zm173.4-37.4v4.8h-56q0 8 3.6 12.2 3.6 4 11.4 4 7 0 10.4-3 3.4-3 3.4-8h27.3q0 13.6-10.3 21.3-10.4 7.6-30.2 7.6-20.8 0-32.3-9.7-11.5-9.7-11.5-29.4 0-19.3 11.2-29.2 11.2-10 31-10 20.5 0 31.4 9.6 10.8 9.7 10.8 29.5zm-56-8.5H283q0-5.8-3.3-9.2-3.3-3.4-9.3-3.4-13.3 0-15 12.6zm194.4-2.5V129h-28.2V84q0-5-2.3-7.8-2.3-3-6.6-3-5 0-8 3.4-3 3.4-3 8.4v44h-28.2V84q0-5-2.3-7.8-2.4-3-6.6-3-5 0-8 3.4-3 3.4-3 8.4v44H325V54.2h23l1.8 11.2q4.3-6 11.3-9.4 7-3.5 14.8-3.5 17 0 22.7 13 4.4-6 11.3-9.4 6.8-3.5 14.3-3.5 12.8 0 19.2 7.3 6.3 7.3 6.3 20.8zm55.6-28q19.7 0 31 10 11.2 10 11.2 29 0 19-11.2 29-11.3 10-31 10-19.7 0-31-10-11.2-10-11.2-29.2 0-19.3 11.2-29.2 11.2-10 31-10zm-14 35v8q0 16 14 16 14 0 14-16v-8q0-16-14-16-14 0-14 16zm147.6-7V129h-28.2V84q0-5-2.5-7.8-2.5-3-7-3-5.3 0-8.5 3.4-3.3 3.4-3.3 8.4v44h-28.2V54.2h23l1.8 11.3q4.4-6 11.6-9.5 7-3.5 15-3.5 13 0 19.5 7.2 6.6 7.3 6.6 21z" fill="#e6b00f" stroke="none"/><g fill="#2e3a41"><path d="M745.7 56.5h-32V129h-31.3V56.5h-32v-25h95.2v25zM760 129V31.6h31.3v72.6h50v25H760zm178.6-69v1.7h-29.3V61q0-4.3-3-7-3-2.8-9.5-2.8-6.3 0-9.6 1.8-3.3 1.8-3.3 4.5 0 4 4.5 5.7Q893 65 903 67q11.8 2.4 19.4 5 7.5 2.6 13.2 8.5 5.7 6 5.8 16.2 0 17.3-11.7 25.6-11.7 8.4-31.2 8.4-22.8 0-35.5-7.7-12.7-7.6-12.7-27H880q0 7.3 3.8 9.8 4 2.5 12 2.5 6 0 10-1.3 4-1.2 4-5.2 0-3.6-4.3-5.3-4.4-1.8-14-3.8-12-2.5-19.7-5.3-7.8-2.8-13.6-9-5.8-6.4-5.8-17.3 0-16 12.4-23.6Q877 30 896 30q18.8 0 30.8 7.6Q938.8 45 939 60z" stroke="none"/><path d="M42.6-.3c-4.3.3-7 1-11.5 3.6-1.8 1-5.8 4.8-7.3 7-1.3 2-3 5.6-3.4 7.2-.1.7-.4 2-.5 2.5-.4 1.7-.4 16.6 0 17 .2.1.5 0 .7-.2l1.7-1 2.3-1.3 2.2-1.3c2.4-1.2 2.5-1.6 2.5-6.4 0-5.6.7-8 3.2-11.3 1.8-2.4 4-3.8 7.6-5 2-.7 8-.8 10-.1l3.2 1.4c.1.1.8.6 1.5 1 1.3 1 3.4 3 4 4 .1.3.4.8.5 1 1.4 2.5 1.8 4.5 2 10l.2 4 1 .7c.5.4 1.3 1 1.7 1l1.2.6c.2.2.6.4.8.5a9 9 0 0 1 1.4.7c1.7 1.2 2.6 1.5 3 1.2a85 85 0 0 0 .1-8.9c-.1-8.5-.2-8.7-1-10.7l-1-2.7c-.1-.3-.3-.7-.5-1-.4-.4-1-1.4-1.3-2-.3-.8-2-2.7-3.5-4.3S58 2.6 57.3 2.6c-.2 0-.6-.2-.8-.5-.2-.2-.6-.4-1-.4-.2 0-.6-.2-.8-.3-.3-.4-1.5-.7-4.6-1.4-3-.6-3.8-.6-7.6-.3z" stroke="none" fill-rule="nonzero"/></g><path d="M87.7 20.4c-.2.1-.7.3-1 .3a17 17 0 0 0-6.7 2.6c-1.2 1-3 3-3.5 4-.3.6-.7 1.3-.8 1.6-.1.2-.3 1-.4 1.7 0 .6-.2 1.3-.3 1.3-.4.3-.2 4.8.3 6l.4 1.3h3.2c3.8-.1 5.4-.4 8.4-2C88.7 36.6 92 33 92 32c0-.2.1-.3.2-.3s.2-.1.2-.3.4-1.3 1-2.6c.2-.4.4-1.2.5-2 0-.6.2-1.2.3-1.4.1-.1.3-1.2.4-2.5l.1-2.2-1-.3c-1-.4-5.5-.5-6-.2z" stroke="none" fill="#00991a" fill-rule="nonzero"/><path d="M39.6 29l-5 3-3 2c-.3.1-1 .5-1.5 1s-1.3.8-1.4.8c-.4 0-3 1.6-4.4 2.6a21 21 0 0 1-2.2 1.4l-9.4 5.7C8.6 48.7 5.2 53 3 58 1.7 60.4 1.5 61 1 63.2c-.1.5-.3 1-.4 1.2-.2.2-.5 2-.8 4-.7 5.3-.5 21.5.4 26.5.7 4 1.4 6.6 2 7 .1.1.2.6.2 1s.2 1 .5 1.5l1.8 3.8 2 3.5c.3.3.6.6.6.7 0 .3 2 3 2.7 4l7.4 7.4c3.6 2.8 5.7 4.2 6.4 4.6l1.7 1c.5.4 1 .7 1.2.7.1 0 1 .6 2.2 1.3 1 .8 2 1.4 2.3 1.4.1 0 .4.2.6.4.2.3.8.8 1.3 1.2a50 50 0 0 1 4.2 3.1c4.6 3.6 4.8 3.7 7.8 3.7 1.8 0 2.7-.2 3.2-.5.4-.3 1-.6 1.5-.6.4-.1 1.5-.8 2.3-1.6l3-2.5c3.4-2.7 4.3-3.4 7.7-5.4l2.4-1.6 2-1.3c.2 0 .5-.2.8-.5.3-.4.7-.6 1-.6a42 42 0 0 0 8.3-7.2c2.5-2.6 5.4-6.5 5.4-7.2 0-.2.2-.5.5-.7a51 51 0 0 0 5.7-13.9c.2-.7.4-2 .6-3 .6-2.4.6-3.3.8-13l-.7-16-.6-2.7c-1-5-4.3-10-8.6-14.4C78 46 76.7 45 73 42.7l-5.5-3.3c-.4-.3-1.3-.8-2-1.2l-6-3.7c-.2-.2-.6-.3-.8-.3s-1-.4-1.5-1c-.5-.5-1.2-1-1.5-1s-.6-.1-.6-.3c0-.3-4-2.8-6.2-3.8-1-.5-2-.6-4-.6-2.6 0-2.7.1-5.2 1.3z" stroke="none" fill="#e6b00f" fill-rule="nonzero"/><g fill="#2e3a41"><circle cx="46.6" cy="75.8" stroke="none" r="11.4"/><path stroke="none" d="M40.6 70.6h12v29.2h-12z"/><ellipse cx="46.6" cy="99.5" rx="6" ry="6.2" stroke="none"/></g></svg>